<?xml version="1.0" standalone="no"?>
<!DOCTYPE svg PUBLIC "-//W3C//DTD SVG 20010904//EN"
 "http://www.w3.org/TR/2001/REC-SVG-20010904/DTD/svg10.dtd">
<svg version="1.0" xmlns="http://www.w3.org/2000/svg"
 width="500.000000pt" height="500.000000pt" viewBox="0 0 500.000000 500.000000"
 preserveAspectRatio="xMidYMid meet">

<g transform="translate(0.000000,500.000000) scale(0.100000,-0.100000)"
fill="#000000" stroke="none">
<path d="M2210 4934 c-474 -58 -807 -189 -1165 -459 -136 -102 -313 -277 -414
-408 -30 -39 -59 -75 -64 -78 -4 -3 -1 -11 7 -18 11 -10 18 -6 37 21 13 18 26
35 29 38 3 3 37 43 77 90 487 579 1200 864 1963 786 793 -82 1471 -539 1834
-1236 140 -270 209 -501 251 -850 2 -19 5 -129 5 -245 2 -204 -7 -289 -40
-416 -6 -20 -10 -45 -10 -55 0 -42 -90 -299 -151 -429 -60 -128 -198 -364
-255 -435 -57 -70 -153 -182 -198 -229 -67 -70 -234 -214 -319 -275 -37 -26
-67 -52 -67 -56 0 -5 -7 -16 -16 -24 -27 -27 3 -17 63 20 184 117 363 288 567
545 135 169 278 442 349 664 85 268 117 464 117 717 0 419 -118 838 -338 1204
-112 187 -318 431 -473 563 -104 88 -107 91 -234 176 -295 197 -590 309 -975
371 -101 16 -495 28 -580 18z m2144 -3676 c-21 -37 -47 -68 -56 -68 -5 0 5 18
22 40 30 38 49 53 34 28z"/>
<path d="M2437 4733 c-2 -5 -8 -52 -11 -106 -7 -92 -6 -98 11 -95 15 3 19 16
23 73 l5 70 38 -58 c21 -31 40 -64 43 -72 4 -8 14 -15 24 -15 15 0 18 14 24
95 4 52 4 100 1 105 -14 22 -25 -4 -25 -58 0 -87 -12 -95 -48 -31 -51 91 -72
114 -85 92z"/>
<path d="M2241 4723 c-24 -5 -24 -5 -17 -101 4 -53 10 -100 15 -105 14 -14
131 3 131 19 0 10 -14 13 -52 11 -51 -2 -53 -1 -56 26 -4 29 0 32 61 42 54 9
46 25 -13 25 -49 0 -50 1 -50 29 0 28 2 30 48 33 26 2 47 8 47 13 0 11 -74 16
-114 8z"/>
<path d="M2710 4707 c-14 -7 -24 -21 -24 -30 1 -9 -4 -17 -11 -17 -28 0 -34
-77 -9 -115 20 -31 73 -48 115 -38 26 7 35 17 46 48 15 45 8 55 -44 55 -37 0
-45 -17 -11 -22 26 -3 37 -36 16 -49 -23 -15 -67 -10 -88 11 -31 31 -23 108
14 132 18 13 61 9 82 -7 24 -19 34 -19 34 0 0 16 -49 45 -77 45 -10 0 -29 -6
-43 -13z"/>
<path d="M1980 4676 c-25 -7 -45 -16 -45 -21 0 -33 40 -187 49 -191 6 -2 36 2
66 9 38 9 56 18 58 30 3 15 0 16 -23 7 -39 -15 -85 -13 -85 4 0 8 -3 21 -6 29
-4 10 7 17 40 26 64 16 60 35 -4 26 -52 -7 -50 -8 -54 38 -1 6 19 17 43 23 48
11 69 35 29 33 -12 -1 -43 -6 -68 -13z"/>
<path d="M2916 4671 c-12 -18 -44 -176 -38 -182 12 -11 115 -38 124 -33 12 8
0 24 -18 24 -8 0 -30 6 -49 14 -33 14 -34 16 -23 46 8 26 15 31 32 26 53 -16
76 -18 76 -8 0 6 -17 16 -37 22 -49 16 -54 21 -46 48 4 18 11 22 27 19 76 -18
86 -18 86 -5 0 9 -19 19 -51 26 -60 14 -76 15 -83 3z"/>
<path d="M1828 4633 c-14 -4 -18 -19 -20 -85 l-3 -81 -43 62 c-37 52 -47 61
-65 55 -12 -4 -24 -8 -26 -10 -6 -5 60 -184 70 -190 20 -12 19 26 -2 80 -11
32 -19 60 -16 62 3 3 24 -22 47 -55 59 -84 70 -81 70 21 0 91 8 93 37 9 19
-54 43 -80 43 -44 -1 27 -56 177 -66 179 -5 1 -17 0 -26 -3z"/>
<path d="M3127 4613 c-8 -14 -19 -68 -13 -62 8 8 26 69 21 69 -2 0 -6 -3 -8
-7z"/>
<path d="M3273 4555 c0 -18 19 -15 25 3 2 7 -3 12 -10 12 -8 0 -15 -7 -15 -15z"/>
<path d="M3437 4553 c-12 -11 -8 -23 8 -23 8 0 15 7 15 15 0 16 -12 20 -23 8z"/>
<path d="M3082 4512 c-12 -13 -25 -36 -28 -51 -5 -25 -2 -28 36 -40 23 -7 48
-15 56 -18 8 -3 14 0 14 7 0 6 -18 19 -39 27 l-40 16 16 39 c19 47 15 52 -15
20z"/>
<path d="M1517 4499 c-21 -11 -41 -26 -44 -34 -5 -15 59 -159 76 -169 18 -12
22 13 7 48 -8 19 -12 37 -8 40 11 12 48 5 80 -14 18 -11 39 -20 47 -20 27 0
16 19 -25 42 -41 24 -47 32 -30 43 16 10 11 51 -8 68 -24 22 -48 21 -95 -4z
m80 -26 c7 -18 -38 -63 -63 -63 -12 0 -40 48 -32 55 36 28 86 32 95 8z"/>
<path d="M3402 4488 c-5 -7 -26 -45 -45 -84 -39 -82 -35 -122 6 -58 26 42 77
140 77 149 0 10 -28 5 -38 -7z"/>
<path d="M3468 4409 c-19 -30 -37 -61 -41 -69 -4 -8 -14 -25 -22 -36 -15 -21
-14 -23 31 -48 25 -14 50 -26 55 -26 19 0 7 16 -26 37 l-35 23 46 76 c32 52
43 79 36 86 -7 7 -21 -7 -44 -43z"/>
<path d="M1296 4442 c-3 -6 -1 -14 5 -17 15 -10 25 3 12 16 -7 7 -13 7 -17 1z"/>
<path d="M2285 4424 c-279 -40 -464 -96 -665 -200 -464 -241 -816 -674 -933
-1150 -48 -192 -52 -229 -51 -469 0 -199 3 -244 23 -335 191 -895 1005 -1509
1922 -1451 259 16 470 71 688 178 518 256 880 727 991 1289 31 155 38 393 16
544 -52 353 -166 622 -384 898 -124 158 -282 302 -452 412 -175 113 -439 218
-655 260 -106 20 -421 36 -500 24z m370 -45 c100 -10 118 -14 250 -44 214 -51
470 -180 666 -335 96 -78 250 -234 321 -327 314 -413 430 -953 314 -1458 -52
-225 -166 -467 -313 -664 -64 -86 -328 -350 -352 -351 -3 -1 -31 -21 -61 -45
-30 -24 -89 -63 -130 -86 -41 -23 -89 -50 -107 -60 -69 -39 -338 -116 -483
-138 -41 -7 -111 -19 -155 -27 -74 -14 -93 -14 -256 5 -223 26 -348 51 -474
96 -123 43 -294 127 -398 194 -43 28 -82 51 -87 51 -6 0 -10 5 -10 10 0 6 -6
10 -12 10 -7 0 -30 16 -52 35 -21 19 -42 35 -46 35 -15 0 -197 186 -230 235
-19 28 -40 56 -47 63 -7 7 -13 18 -13 23 0 12 -134 238 -154 262 -9 9 -13 17
-8 17 4 0 2 4 -4 8 -23 15 -62 109 -67 162 -3 30 -12 78 -20 105 -15 51 -27
111 -47 219 -5 33 -10 138 -10 235 1 353 79 636 254 919 306 495 829 816 1396
860 109 8 193 6 335 -9z"/>
<path d="M2454 4182 c10 -16 -71 -35 -113 -27 -64 11 -110 6 -201 -25 -142
-47 -324 -146 -335 -181 -3 -9 -15 -19 -25 -22 -14 -3 -18 -10 -14 -21 4 -9 3
-16 -2 -15 -20 3 -35 -2 -30 -10 9 -14 -30 -42 -50 -35 -16 5 -16 4 -4 -5 12
-9 11 -11 -8 -11 -15 0 -26 -7 -29 -20 -3 -11 -10 -17 -16 -13 -5 3 -7 2 -4
-3 3 -6 -7 -18 -22 -29 -26 -17 -58 -55 -46 -55 2 0 26 19 53 43 26 23 78 65
114 92 56 41 65 52 55 65 -11 13 -10 13 6 1 11 -9 21 -11 25 -5 20 28 232 139
327 172 253 86 375 78 734 -48 153 -54 325 -105 386 -114 28 -4 1 10 -85 47
-69 30 -174 76 -235 102 -185 80 -277 107 -414 120 -51 5 -72 4 -67 -3z"/>
<path d="M2295 4034 c-107 -18 -290 -90 -403 -160 -128 -80 -295 -204 -403
-299 -25 -22 -69 -59 -97 -83 -29 -24 -52 -47 -52 -53 0 -5 35 -9 78 -9 136 0
289 -37 439 -106 119 -55 270 -112 353 -135 106 -29 283 -36 375 -15 89 21
174 54 200 77 19 19 19 19 -7 19 -15 0 -53 -7 -85 -15 -101 -27 -206 -45 -263
-45 -54 0 -167 19 -245 41 -43 12 -145 56 -145 63 0 2 47 -11 104 -29 58 -19
126 -36 153 -39 37 -5 29 -1 -37 18 -162 45 -282 103 -453 217 -102 69 -120
77 -136 67 -15 -9 -23 -9 -35 1 -22 18 -20 25 15 60 29 30 69 42 69 21 0 -5
52 29 116 75 136 100 212 144 332 192 48 20 92 42 97 49 27 35 144 46 212 20
21 -8 78 -26 127 -41 154 -46 322 -139 541 -301 19 -14 19 -14 -5 -37 -76 -69
-240 -182 -354 -243 -44 -24 -76 -44 -71 -44 6 0 59 20 119 44 92 38 105 41
87 22 -12 -12 -18 -26 -14 -29 3 -4 0 -7 -7 -7 -10 0 -11 -3 -3 -11 8 -8 28
-1 75 27 114 69 402 297 476 377 l24 25 -79 6 c-88 7 -246 55 -369 112 -329
152 -370 164 -559 169 -77 2 -153 1 -170 -1z m587 -137 c60 -33 37 -30 -28 3
-32 17 -48 28 -34 24 14 -3 42 -16 62 -27z m313 -296 c3 -5 1 -12 -5 -16 -5
-3 -10 1 -10 9 0 18 6 21 15 7z m-1590 -53 c15 -16 23 -35 23 -55 -1 -16 2
-35 6 -41 10 -16 -146 2 -181 21 -28 16 -28 21 4 53 57 57 106 64 148 22z
m125 -48 c0 -5 -2 -10 -4 -10 -3 0 -8 5 -11 10 -3 6 -1 10 4 10 6 0 11 -4 11
-10z"/>
<path d="M2320 3911 c-136 -44 -230 -168 -230 -301 1 -112 48 -200 135 -255
69 -44 117 -58 198 -57 164 1 294 124 305 287 6 95 -15 158 -75 225 -66 74
-129 103 -228 106 -44 2 -91 0 -105 -5z m253 -76 c43 -20 78 -67 102 -134 20
-59 19 -105 -6 -180 -34 -101 -129 -176 -236 -189 -77 -8 -233 57 -233 98 0 5
-4 10 -10 10 -5 0 -19 18 -30 40 -25 49 -31 140 -13 191 26 78 78 149 101 141
7 -2 12 1 12 6 0 10 37 25 58 23 6 -1 12 3 12 10 0 6 8 9 19 6 10 -2 24 -2 29
2 19 12 156 -5 195 -24z"/>
<path d="M2365 3748 c-69 -24 -111 -92 -100 -160 9 -50 58 -102 111 -118 82
-25 174 45 174 133 0 36 -1 37 -36 37 -47 0 -94 45 -94 89 0 33 -7 36 -55 19z"/>
<path d="M3185 3399 c-100 -86 -209 -161 -317 -217 -85 -45 -235 -104 -266
-105 -7 0 -10 -8 -7 -17 4 -13 -5 -20 -35 -30 -70 -23 -241 -16 -225 10 3 4
-3 11 -12 13 -16 4 -15 5 2 7 11 1 -23 12 -75 26 -91 23 -262 76 -305 94 -60
25 -293 94 -279 81 25 -21 381 -184 459 -209 229 -75 450 -67 655 23 98 43
245 144 341 233 70 66 150 154 137 151 -2 0 -34 -27 -73 -60z"/>
<path d="M2645 3280 c-19 -8 -19 -9 2 -9 12 -1 25 4 28 9 7 12 -2 12 -30 0z"/>
<path d="M2568 3253 c7 -3 16 -2 19 1 4 3 -2 6 -13 5 -11 0 -14 -3 -6 -6z"/>
<path d="M3171 3232 c-21 -20 -29 -41 -34 -82 -7 -51 -5 -56 19 -76 21 -17 25
-27 20 -48 -3 -14 -12 -26 -20 -26 -7 0 -13 -7 -13 -15 0 -10 10 -15 29 -15
15 0 37 -9 48 -20 20 -20 56 -26 76 -12 6 4 14 20 18 37 4 16 23 46 42 67 23
26 34 48 34 68 0 27 22 51 35 38 8 -8 8 -50 0 -120 -7 -63 -6 -68 18 -92 14
-14 34 -26 44 -26 16 0 18 11 18 121 0 115 -1 122 -24 140 -13 10 -38 19 -57
19 -24 0 -38 7 -49 23 -21 33 -57 47 -121 47 -47 0 -60 -4 -83 -28z"/>
<path d="M1468 3161 c-29 -26 -33 -35 -33 -83 0 -38 6 -61 22 -83 12 -17 23
-46 25 -65 3 -31 7 -35 51 -49 46 -14 48 -14 63 7 8 12 23 22 33 22 40 0 63
76 52 172 -10 93 -25 108 -112 108 -62 0 -72 -3 -101 -29z"/>
<path d="M3272 2897 c-39 -12 -122 -83 -122 -103 0 -9 4 -13 9 -9 5 3 13 0 17
-7 4 -7 4 -10 -1 -6 -4 4 -14 3 -22 -3 -10 -9 -13 -8 -13 2 0 8 -10 -1 -22
-19 -19 -30 -20 -37 -8 -72 7 -22 16 -38 19 -36 4 3 5 -13 3 -35 -3 -24 0 -39
7 -39 9 0 16 28 12 53 0 4 3 7 7 7 17 0 8 30 -10 36 -18 5 -16 24 3 24 6 0 7
-4 4 -10 -3 -5 -2 -10 2 -10 5 0 14 14 20 30 9 23 8 29 0 24 -7 -3 -5 1 3 8 8
7 23 27 32 43 33 60 36 33 7 -77 -16 -62 -32 -121 -35 -130 -3 -9 -27 -31 -54
-48 -28 -18 -47 -36 -44 -41 3 -5 -1 -6 -9 -3 -9 3 -23 -7 -37 -25 -12 -18
-26 -28 -33 -25 -7 4 -9 4 -5 -1 9 -10 -21 -34 -42 -35 -9 0 -16 -9 -17 -20
-2 -29 29 -22 39 9 2 8 12 15 22 17 41 6 219 90 235 110 16 20 66 178 85 267
8 34 26 26 26 -10 0 -30 -66 -229 -85 -256 -7 -10 -42 -35 -76 -56 -70 -40
-64 -28 -88 -176 -6 -33 -21 -120 -34 -192 -25 -141 -23 -153 22 -153 15 0 31
-4 37 -8 7 -4 18 -91 29 -216 20 -239 24 -224 -66 -247 -27 -7 -49 -19 -49
-26 0 -10 23 -12 105 -10 57 2 107 6 110 9 4 3 -1 22 -9 42 -13 32 -13 46 0
128 26 160 27 174 15 227 -13 64 -4 86 18 43 9 -16 55 -95 104 -175 48 -79 87
-150 87 -157 0 -21 -50 -81 -77 -91 -32 -12 -25 -33 13 -37 21 -2 41 6 69 28
21 17 45 28 53 25 15 -5 42 11 42 25 0 5 -11 22 -25 38 -15 18 -32 58 -41 99
-33 141 -45 172 -84 222 -23 29 -39 55 -36 60 3 5 37 11 76 15 38 4 71 10 74
14 2 4 -23 138 -57 297 -49 234 -61 306 -59 370 1 44 -4 120 -10 170 -16 126
-45 152 -136 122z m-140 -162 c-4 -21 -1 -24 14 -19 17 5 17 4 -1 -11 -19 -15
-20 -15 -23 5 -3 21 3 50 11 50 2 0 2 -11 -1 -25z"/>
<path d="M1423 2845 c-11 -8 -23 -27 -26 -42 -3 -16 -11 -50 -17 -78 -11 -46
-12 -185 -8 -635 1 -118 -2 -146 -25 -225 -104 -358 -109 -415 -41 -415 12 0
38 -7 57 -15 49 -20 117 -20 117 0 0 8 -6 15 -13 15 -7 0 -28 13 -46 28 l-34
28 28 80 c87 252 104 305 110 367 4 37 10 67 14 67 3 0 21 -35 39 -78 31 -75
32 -81 32 -224 0 -81 5 -181 11 -223 l11 -75 90 0 c121 0 171 28 90 50 -49 13
-76 42 -69 72 4 13 7 111 8 218 l2 195 -42 125 c-32 98 -41 140 -41 194 0 52
-4 75 -17 89 -13 15 -14 18 -3 13 24 -12 -31 32 -77 62 -45 28 -54 45 -99 176
-35 103 -30 166 14 166 12 0 12 -3 2 -15 -7 -8 -10 -31 -8 -52 8 -62 57 -217
76 -235 9 -9 62 -40 117 -69 55 -28 108 -60 119 -71 10 -11 26 -18 36 -15 26
7 32 1 94 -110 32 -57 60 -103 62 -103 5 0 -4 20 -63 140 -28 58 -53 114 -55
125 -3 17 -10 19 -41 17 -32 -3 -45 3 -89 40 -28 24 -70 57 -92 73 -28 20 -42
39 -44 58 -2 15 -12 57 -23 95 -24 83 -25 99 -4 82 8 -6 26 -48 40 -93 15 -45
31 -86 36 -91 25 -26 -4 172 -33 229 -10 18 -34 36 -69 51 -63 27 -96 30 -126
9z"/>
<path d="M2890 2357 c0 -7 -19 -48 -41 -92 -53 -104 -109 -225 -104 -225 3 0
38 62 120 215 20 39 41 74 46 80 13 13 11 22 -6 29 -8 3 -15 0 -15 -7z"/>
<path d="M2020 2041 c0 -6 4 -13 10 -16 6 -3 7 1 4 9 -7 18 -14 21 -14 7z"/>
<path d="M2051 1990 c14 -31 19 -36 19 -24 0 6 -7 19 -16 30 -14 18 -14 18 -3
-6z"/>
<path d="M2686 1940 c-20 -38 -35 -70 -32 -70 7 0 77 132 73 136 -2 3 -21 -27
-41 -66z"/>
<path d="M2092 1905 c12 -24 23 -43 26 -41 4 5 -36 86 -43 86 -3 0 5 -20 17
-45z"/>
<path d="M2150 1800 c11 -22 23 -40 25 -40 3 0 -4 18 -15 40 -11 22 -23 40
-25 40 -3 0 4 -18 15 -40z"/>
<path d="M2590 1759 c-12 -23 -20 -43 -18 -45 3 -2 14 17 26 41 27 56 20 60
-8 4z"/>
<path d="M2243 1630 c83 -154 107 -195 107 -184 0 12 -127 244 -142 259 -6 6
10 -28 35 -75z"/>
<path d="M2521 1629 c-18 -33 -31 -62 -29 -65 3 -2 20 23 37 57 18 33 31 62
29 64 -2 2 -19 -23 -37 -56z"/>
<path d="M2447 1489 c-16 -27 -24 -49 -20 -49 9 0 56 90 51 96 -2 1 -16 -19
-31 -47z"/>
<path d="M1245 4410 c-3 -5 1 -13 10 -16 22 -9 29 1 11 15 -10 8 -16 9 -21 1z"/>
<path d="M1291 4371 c-46 -43 -39 -106 15 -156 73 -68 197 12 162 104 -31 83
-117 108 -177 52z m110 -14 c38 -29 52 -103 25 -126 -22 -18 -74 -16 -96 4
-10 9 -24 33 -31 52 -9 28 -8 38 5 58 18 28 69 34 97 12z"/>
<path d="M3215 4389 c-9 -13 -7 -15 37 -34 51 -21 58 -1 9 25 -26 13 -42 16
-46 9z"/>
<path d="M3587 4298 c-30 -40 -57 -78 -61 -85 -4 -8 14 -26 49 -49 85 -57 87
-28 2 31 -16 11 -17 16 -5 34 19 30 37 34 65 11 46 -36 61 -22 19 16 l-40 35
21 20 21 21 38 -26 c41 -28 54 -32 54 -17 0 9 -92 81 -103 81 -3 0 -30 -33
-60 -72z"/>
<path d="M1125 4249 c-54 -31 -70 -95 -38 -150 17 -28 67 -59 95 -59 25 0 77
39 93 70 17 32 15 41 -18 78 l-21 22 -27 -26 c-31 -30 -29 -50 3 -33 45 24 51
-30 6 -64 -23 -17 -30 -18 -57 -7 -82 34 -80 150 3 150 18 0 26 5 24 13 -6 16
-38 19 -63 6z"/>
<path d="M3736 4180 c-36 -37 -66 -72 -66 -77 0 -24 16 -21 47 9 30 29 35 31
49 17 12 -13 13 -24 4 -63 -6 -26 -8 -52 -5 -57 13 -20 23 -6 30 40 7 48 8 50
42 53 50 4 63 28 39 72 -10 18 -30 43 -46 54 l-28 21 -66 -69z m102 14 c16
-11 22 -24 20 -42 -4 -36 -37 -40 -66 -9 -20 21 -21 25 -6 45 18 26 23 27 52
6z"/>
<path d="M858 3998 c-21 -23 -38 -45 -38 -49 0 -8 59 -65 117 -113 44 -37 54
-14 13 29 -32 33 -32 33 -10 45 15 8 34 9 65 2 34 -7 47 -6 56 4 11 13 2 18
-56 26 -14 2 -21 12 -23 33 -9 75 -66 86 -124 23z m82 -3 c11 -13 10 -21 -1
-42 -19 -35 -37 -40 -62 -15 l-21 22 24 25 c27 29 42 31 60 10z"/>
<path d="M3974 4015 c-16 -14 -48 -40 -71 -58 -23 -18 -43 -37 -43 -43 0 -7
19 -28 41 -49 37 -33 46 -37 81 -32 52 7 98 54 98 100 0 34 -44 106 -66 107
-6 0 -24 -11 -40 -25z m66 -34 c18 -35 11 -68 -21 -95 -37 -31 -68 -33 -97 -6
-31 29 -32 27 43 88 46 37 60 40 75 13z"/>
<path d="M550 3966 c0 -2 7 -9 15 -16 13 -11 14 -10 9 4 -5 14 -24 23 -24 12z"/>
<path d="M702 3909 c2 -6 8 -10 13 -10 5 0 11 4 13 10 2 6 -4 11 -13 11 -9 0
-15 -5 -13 -11z"/>
<path d="M746 3871 c-3 -4 33 -38 79 -75 67 -52 87 -63 91 -51 4 9 5 17 3 19
-2 1 -36 28 -75 59 -71 57 -88 65 -98 48z"/>
<path d="M4072 3819 l-82 -61 32 -45 c35 -48 46 -58 55 -49 3 3 -6 23 -20 45
-25 37 -25 40 -8 55 25 23 38 20 70 -16 39 -44 51 -29 16 18 l-28 37 24 18
c13 10 26 19 29 19 3 0 15 -16 28 -35 22 -34 42 -46 42 -24 0 13 -61 99 -70
99 -3 0 -43 -27 -88 -61z"/>
<path d="M684 3788 c-7 -10 18 -37 54 -57 13 -7 10 -14 -13 -45 -15 -20 -30
-36 -34 -36 -3 0 -19 9 -36 20 -35 23 -45 25 -45 7 0 -8 38 -40 85 -71 69 -45
87 -53 91 -41 4 9 5 17 3 19 -2 1 -19 13 -36 25 -35 23 -34 29 2 75 15 19 15
19 54 -2 45 -26 51 -27 51 -9 0 12 -149 127 -164 127 -3 0 -8 -5 -12 -12z"/>
<path d="M424 3763 c-128 -196 -227 -480 -286 -823 -20 -115 -16 -551 5 -659
10 -47 19 -86 21 -88 13 -13 16 112 5 235 -20 245 -1 519 53 742 41 171 93
310 185 489 35 68 56 118 46 110 -15 -12 -16 -12 -10 4 9 25 2 21 -19 -10z"/>
<path d="M4178 3670 c-43 -27 -78 -54 -78 -60 0 -15 14 -12 49 7 24 14 33 15
43 5 9 -9 8 -21 -10 -57 -38 -78 -23 -106 17 -34 21 36 26 40 52 34 20 -5 38
-1 56 10 21 14 24 22 20 51 -6 38 -42 94 -60 94 -7 0 -47 -22 -89 -50z m112
-20 c11 -27 11 -34 -2 -47 -21 -20 -52 -9 -66 23 -16 33 -16 31 15 48 33 17
37 15 53 -24z"/>
<path d="M536 3553 c-32 -66 -35 -62 76 -122 l77 -41 16 25 c51 84 59 105 42
105 -7 0 -24 -20 -40 -45 l-27 -46 -30 16 -30 16 26 50 c22 44 23 50 8 47 -10
-2 -27 -20 -38 -41 -22 -42 -24 -43 -52 -23 -19 14 -18 15 4 60 26 54 26 56 9
56 -7 0 -25 -25 -41 -57z"/>
<path d="M4277 3488 c-65 -32 -85 -46 -78 -57 7 -10 20 -7 67 18 33 17 60 27
62 22 2 -5 -13 -30 -33 -56 -50 -67 -57 -81 -42 -93 15 -11 186 67 187 86 0
18 -20 15 -73 -14 -27 -14 -53 -24 -58 -22 -5 2 11 32 36 68 72 105 62 111
-68 48z"/>
<path d="M483 3409 c-27 -10 -43 -39 -43 -76 0 -66 59 -73 113 -13 39 44 48
47 67 25 19 -23 4 -62 -30 -73 -16 -6 -30 -16 -30 -21 0 -21 51 -11 77 15 18
18 29 22 36 15 8 -8 8 -14 -1 -23 -15 -15 -16 -28 -2 -28 13 0 29 41 23 58 -3
6 -11 12 -18 12 -7 0 -15 13 -18 29 -7 36 -32 61 -59 61 -12 0 -38 -18 -59
-40 -38 -40 -62 -49 -74 -30 -11 18 6 51 31 60 24 9 31 25 17 33 -5 3 -18 1
-30 -4z"/>
<path d="M4382 3301 c-46 -21 -87 -42 -92 -47 -6 -6 1 -33 18 -69 31 -66 53
-62 26 5 -18 44 -14 53 24 65 20 6 25 1 40 -34 9 -22 23 -41 30 -41 16 0 15
13 -5 56 -17 35 -17 36 2 50 27 20 37 14 60 -34 21 -45 35 -54 35 -22 0 21
-40 110 -49 110 -4 -1 -43 -18 -89 -39z"/>
<path d="M402 3218 c-15 -20 -35 -95 -29 -111 5 -13 154 -67 185 -67 28 0 9
29 -25 41 -21 6 -41 14 -46 16 -12 7 13 43 31 43 38 0 92 21 92 37 0 11 -6 14
-26 9 -74 -19 -78 -18 -96 13 -13 24 -24 31 -46 31 -16 0 -34 -6 -40 -12z m52
-24 c17 -7 21 -50 7 -73 -12 -19 -61 -6 -61 17 0 16 26 62 35 62 2 0 10 -3 19
-6z"/>
<path d="M4440 3129 c-41 -9 -90 -59 -90 -93 0 -13 10 -38 23 -57 21 -30 28
-34 66 -33 54 1 64 12 50 52 -14 40 -29 41 -29 2 0 -27 -3 -30 -30 -30 -55 0
-70 75 -21 109 35 25 103 28 125 5 18 -17 21 -59 6 -69 -10 -6 -2 -35 10 -35
14 0 32 59 26 85 -13 53 -66 78 -136 64z"/>
<path d="M4590 3110 c0 -5 7 -10 15 -10 8 0 15 5 15 10 0 6 -7 10 -15 10 -8 0
-15 -4 -15 -10z"/>
<path d="M4605 3070 c-3 -5 1 -10 9 -10 9 0 16 5 16 10 0 6 -4 10 -9 10 -6 0
-13 -4 -16 -10z"/>
<path d="M350 3016 c0 -7 10 -16 23 -19 24 -6 132 -35 160 -43 12 -4 17 0 17
13 0 15 -17 23 -87 41 -102 26 -113 27 -113 8z"/>
<path d="M330 2936 c0 -10 16 -38 36 -62 20 -25 35 -47 32 -49 -2 -3 -20 0
-38 5 -22 6 -38 6 -44 0 -17 -17 6 -28 79 -40 39 -6 83 -13 98 -16 47 -10 31
27 -18 40 -49 14 -58 41 -18 50 52 12 83 28 83 43 0 8 -6 13 -12 11 -7 -3 -37
-13 -66 -23 l-54 -17 -39 38 c-30 29 -39 34 -39 20z"/>
<path d="M4642 2939 c2 -6 8 -10 13 -10 5 0 11 4 13 10 2 6 -4 11 -13 11 -9 0
-15 -5 -13 -11z"/>
<path d="M4505 2911 c-88 -25 -100 -30 -89 -41 6 -6 36 -2 79 10 106 28 115
32 115 41 0 13 -37 10 -105 -10z"/>
<path d="M170 2157 c0 -28 49 -202 86 -305 19 -54 63 -155 99 -227 82 -165
211 -365 226 -350 5 4 28 -22 64 -75 13 -19 44 -65 69 -101 52 -76 158 -179
303 -297 377 -304 805 -479 1283 -523 131 -12 350 -6 391 10 13 5 20 10 14 10
-5 1 -109 6 -230 11 -250 11 -332 21 -495 57 -308 67 -669 244 -935 456 -181
143 -375 362 -523 587 -125 191 -267 512 -297 674 -8 40 -55 104 -55 73z"/>
<path d="M2113 709 c-19 -5 -33 -16 -33 -25 0 -12 8 -14 46 -8 34 5 48 3 55
-7 18 -29 7 -52 -51 -113 -33 -35 -60 -67 -60 -73 0 -11 112 -23 143 -15 9 2
17 11 17 18 0 10 -13 14 -43 14 -24 0 -46 2 -49 5 -3 3 17 27 44 54 41 42 48
54 48 88 0 22 -6 46 -13 52 -21 16 -68 21 -104 10z"/>
<path d="M2327 699 c-25 -14 -47 -69 -47 -114 0 -46 23 -101 48 -114 32 -17
80 -13 101 8 23 23 36 96 28 149 -11 65 -78 101 -130 71z m67 -35 c20 -19 22
-144 4 -162 -18 -18 -46 -14 -58 7 -16 30 -12 123 6 149 18 26 27 27 48 6z"/>
<path d="M2532 695 c-45 -20 -32 -38 22 -30 85 13 80 -55 -10 -134 -68 -60
-61 -72 38 -69 54 2 83 7 86 16 2 8 -11 12 -47 12 -58 0 -68 18 -26 46 32 21
65 75 65 107 0 30 -42 67 -74 67 -11 -1 -36 -7 -54 -15z"/>
<path d="M2748 680 c-48 -39 -67 -109 -45 -163 26 -61 97 -78 142 -32 61 60
-1 159 -76 121 -26 -13 -29 -13 -29 2 1 26 24 50 64 67 20 9 34 20 31 25 -12
19 -51 10 -87 -20z m72 -115 c15 -18 4 -71 -16 -79 -38 -15 -80 47 -54 79 16
19 54 19 70 0z"/>
<path d="M3428 521 c-18 -7 -91 -36 -163 -63 -71 -27 -137 -51 -145 -55 -8 -3
-18 -7 -22 -7 -3 -1 -9 -4 -13 -8 -4 -4 -13 -4 -21 -1 -8 3 -25 -2 -39 -11
-14 -9 -25 -14 -25 -10 0 4 -7 1 -15 -6 -8 -6 -36 -18 -62 -25 -74 -20 -19
-17 77 5 150 33 508 163 524 189 8 12 -60 7 -96 -8z"/>
<path d="M2838 313 c6 -2 18 -2 25 0 6 3 1 5 -13 5 -14 0 -19 -2 -12 -5z"/>
</g>
</svg>
